<?xml version="1.0" standalone="no"?><!DOCTYPE svg PUBLIC "-//W3C//DTD SVG 1.1//EN" "http://www.w3.org/Graphics/SVG/1.1/DTD/svg11.dtd"><svg t="1686228030237" class="icon" viewBox="0 0 1024 1024" version="1.1" xmlns="http://www.w3.org/2000/svg" p-id="4329" xmlns:xlink="http://www.w3.org/1999/xlink" width="200" height="200"><path d="M128.4 472.1c-49.7-2.8-89.1-44-89.1-94.3 0-52.2 42.3-94.5 94.5-94.5 20.7 0 39.9 6.7 55.4 18 68.8-104.8 187.3-174 322.1-174s253.3 69.2 322.1 174c15.6-11.3 34.7-18 55.4-18 52.2 0 94.5 42.3 94.5 94.5 0 50.4-39.4 91.5-89.1 94.3 1.4 13.2 2.1 26.6 2.1 40.2 0 212.6-172.4 385-385 385s-385-172.4-385-385c0-13.6 0.7-27 2.1-40.2z" fill="#F5B074" p-id="4330"></path><path d="M511.3 912.2c-54 0-106.4-10.6-155.7-31.4-47.6-20.1-90.4-49-127.1-85.7s-65.6-79.5-85.7-127.1c-20.9-49.3-31.4-101.7-31.4-155.7 0-9 0.3-18.1 0.9-27.1-50.4-10.2-88-54.7-88-107.5 0-60.4 49.1-109.5 109.5-109.5 18.1 0 35.5 4.3 51.1 12.6C260.1 175 381 112.2 511.3 112.2S762.6 175 837.7 280.9c15.7-8.3 33.1-12.6 51.2-12.6 60.4 0 109.5 49.1 109.5 109.5 0 52.8-37.5 97.3-87.9 107.4 0.6 9 0.9 18.1 0.9 27.1 0 54-10.6 106.4-31.4 155.7-20.1 47.6-49 90.4-85.7 127.1s-79.5 65.6-127.1 85.7c-49.5 20.8-101.9 31.4-155.9 31.4z m-377.5-614c-43.8 0-79.5 35.7-79.5 79.5 0 42.1 32.9 77 74.9 79.4l15.7 0.9-1.6 15.6c-1.3 12.7-2 25.7-2 38.6 0 50 9.8 98.4 29.1 144 18.6 44.1 45.3 83.6 79.3 117.6s73.6 60.7 117.6 79.3c45.6 19.3 94.1 29.1 144 29.1s98.4-9.8 144-29.1c44.1-18.6 83.6-45.3 117.6-79.3s60.7-73.6 79.3-117.6c19.3-45.6 29.1-94.1 29.1-144 0-12.9-0.7-25.9-2-38.6l-1.6-15.6 15.7-0.9c42-2.4 74.9-37.2 74.9-79.4 0-43.8-35.7-79.5-79.5-79.5-16.9 0-33 5.2-46.6 15.1l-12.7 9.2-8.6-13.1c-68.7-104.7-184.5-167.2-309.5-167.2-125.1 0-240.8 62.5-309.5 167.2l-8.6 13.1-12.7-9.2c-13.8-9.9-29.9-15.1-46.8-15.1z" fill="#525252" p-id="4331"></path><path d="M256.1 779.3c69.7 64.5 160.3 99.9 255.3 99.9s185.6-35.5 255.3-99.9c13.6-25.2 20.7-53.7 20.7-82.6v-7c0-40.5-14.2-79.9-39.9-111.1l-5-6.1 5.3-5.8c25.5-27.7 39.6-63.8 39.6-101.6 0-82.7-67.3-150-150-150-46.9 0-90.2 21.3-118.9 58.5l-7.1 9.2-7.1-9.2c-28.7-37.2-72-58.5-118.9-58.5-82.7 0-150 67.3-150 150 0 37.7 14.1 73.8 39.6 101.6l5.3 5.8-5 6.1c-25.8 31.2-39.9 70.6-39.9 111.1v7c-0.1 28.9 7.1 57.4 20.7 82.6z" fill="#FFFFFF" p-id="4332"></path><path d="M805.3 465.2c0-92.6-75.4-168-168-168-48.8 0-94.1 20.6-126 56.9-31.9-36.3-77.2-56.9-126-56.9-92.6 0-168 75.4-168 168 0 39.7 13.9 77.7 39.3 108-25.4 33.4-39.3 74.4-39.3 116.5v7c0 32.3 8.2 64.3 23.6 92.5l0.7 1.3 1.1 1c73.1 68.2 168.5 105.8 268.6 105.8 100.1 0 195.5-37.6 268.6-105.8l1.1-1 0.7-1.3c15.5-28.2 23.6-60.2 23.6-92.5v-7c0-42.1-13.9-83.2-39.3-116.5 25.4-30.2 39.3-68.3 39.3-108z m-18 224.5v7c0 28.8-7.2 57.4-20.7 82.6-69.7 64.5-160.3 99.9-255.3 99.9S325.7 843.7 256 779.3c-13.6-25.2-20.7-53.7-20.7-82.6v-7c0-40.5 14.2-79.9 39.9-111.1l5-6.1-5.3-5.8c-25.5-27.8-39.6-63.8-39.6-101.6 0-82.7 67.3-150 150-150 46.9 0 90.2 21.3 118.9 58.5l7.1 9.2 7.1-9.2c28.7-37.2 72-58.5 118.9-58.5 82.7 0 150 67.3 150 150 0 37.7-14.1 73.8-39.6 101.6l-5.3 5.8 5 6.1c25.8 31.2 39.9 70.6 39.9 111.1z" fill="#525252" p-id="4333"></path><path d="M641.9 661.9c-3.9-3.1-9.6-2.4-12.6 1.6-27.3 34.9-66.8 55.7-109.4 57.6 0.3-0.9 0.5-1.8 0.5-2.8v-82.7c3.5-0.9 6.9-2.3 10-4.3l22.7-14.7c4.1-2.6 6.5-7.2 6.5-12 0-7.9-6.4-14.3-14.3-14.3h-66.1c-4.9 0-9.4 2.5-12 6.5-4.3 6.6-2.4 15.5 4.3 19.7l22.7 14.7c2.6 1.6 5.3 2.9 8.1 3.8v83.3c0 0.9 0.1 1.8 0.4 2.6-20-1.5-39.3-7.2-57.2-17-20.3-11.1-38.2-27.2-51.8-46.7-2.8-4.1-8.5-5.1-12.5-2.2-4.1 2.8-5.1 8.5-2.2 12.5 15.2 21.8 35.2 39.8 57.9 52.2 23.5 12.8 50 19.6 76.5 19.6 50.6 0 98-23.6 130-64.7 3.1-4 2.4-9.6-1.5-12.7z" fill="#525252" p-id="4334"></path><path d="M361.3 447.2m-25 0a25 25 0 1 0 50 0 25 25 0 1 0-50 0Z" fill="#525252" p-id="4335"></path><path d="M661.3 447.2m-25 0a25 25 0 1 0 50 0 25 25 0 1 0-50 0Z" fill="#525252" p-id="4336"></path></svg>